<?xml version="1.0" encoding="UTF-8" standalone="no"?>
<!DOCTYPE svg PUBLIC "-//W3C//DTD SVG 1.1//EN"
 "http://www.w3.org/Graphics/SVG/1.1/DTD/svg11.dtd">
<!-- Generated by graphviz version 8.1.0 (20230707.0739)
 -->
<!-- Title: Nodo1 Pages: 1 -->
<svg width="1555pt" height="1052pt"
 viewBox="0.00 0.00 1555.40 1052.00" xmlns="http://www.w3.org/2000/svg" xmlns:xlink="http://www.w3.org/1999/xlink">
<g id="graph0" class="graph" transform="scale(1 1) rotate(0) translate(4 1048)">
<title>Nodo1</title>
<polygon fill="white" stroke="none" points="-4,4 -4,-1048 1551.4,-1048 1551.4,4 -4,4"/>
<!-- No0 -->
<g id="node1" class="node">
<title>No0</title>
<polygon fill="cornflowerblue" stroke="black" stroke-width="5" points="374.4,-595.98 358.71,-656.89 295.2,-684 231.69,-656.89 216,-595.98 259.95,-547.13 330.45,-547.13 374.4,-595.98"/>
<text text-anchor="middle" x="295.2" y="-603.45" font-family="cyan" font-size="24.00">suma=5</text>
</g>
<!-- No0a -->
<g id="node2" class="node">
<title>No0a</title>
<polygon fill="cornflowerblue" stroke="black" stroke-width="5" points="266.4,-415.98 250.71,-476.89 187.2,-504 123.69,-476.89 108,-415.98 151.95,-367.13 222.45,-367.13 266.4,-415.98"/>
<text text-anchor="middle" x="187.2" y="-423.45" font-family="cyan" font-size="24.00">2</text>
</g>
<!-- No0&#45;&gt;No0a -->
<g id="edge1" class="edge">
<title>No0&#45;&gt;No0a</title>
<path fill="none" stroke="black" stroke-width="5" d="M257.73,-549.24C246.98,-531.53 235.27,-512.22 224.53,-494.52"/>
<polygon fill="black" stroke="black" stroke-width="5" points="228.99,-497.72 224.53,-494.58 225.25,-499.98 228.99,-497.72"/>
</g>
<!-- No0b -->
<g id="node3" class="node">
<title>No0b</title>
<polygon fill="cornflowerblue" stroke="black" stroke-width="5" points="482.4,-415.98 466.71,-476.89 403.2,-504 339.69,-476.89 324,-415.98 367.95,-367.13 438.45,-367.13 482.4,-415.98"/>
<text text-anchor="middle" x="403.2" y="-423.45" font-family="cyan" font-size="24.00">3</text>
</g>
<!-- No0&#45;&gt;No0b -->
<g id="edge2" class="edge">
<title>No0&#45;&gt;No0b</title>
<path fill="none" stroke="black" stroke-width="5" d="M332.67,-549.24C343.42,-531.53 355.13,-512.22 365.87,-494.52"/>
<polygon fill="black" stroke="black" stroke-width="5" points="365.15,-499.98 365.87,-494.58 361.41,-497.72 365.15,-499.98"/>
</g>
<!-- No1 -->
<g id="node4" class="node">
<title>No1</title>
<polygon fill="cornflowerblue" stroke="black" stroke-width="5" points="357.4,-955.98 341.71,-1016.89 278.2,-1044 214.69,-1016.89 199,-955.98 242.95,-907.13 313.45,-907.13 357.4,-955.98"/>
<text text-anchor="middle" x="278.2" y="-963.45" font-family="cyan" font-size="24.00">resta=5</text>
</g>
<!-- No1a -->
<g id="node5" class="node">
<title>No1a</title>
<polygon fill="cornflowerblue" stroke="black" stroke-width="5" points="158.4,-775.98 142.71,-836.89 79.2,-864 15.69,-836.89 0,-775.98 43.95,-727.13 114.45,-727.13 158.4,-775.98"/>
<text text-anchor="middle" x="79.2" y="-783.45" font-family="cyan" font-size="24.00">10</text>
</g>
<!-- No1&#45;&gt;No1a -->
<g id="edge3" class="edge">
<title>No1&#45;&gt;No1a</title>
<path fill="none" stroke="black" stroke-width="5" d="M226.69,-924.93C199.36,-900.48 165.68,-870.35 137.4,-845.06"/>
<polygon fill="black" stroke="black" stroke-width="5" points="142.46,-847.07 137.27,-845.37 139.54,-850.33 142.46,-847.07"/>
</g>
<!-- No1b -->
<g id="node6" class="node">
<title>No1b</title>
<polygon fill="cornflowerblue" stroke="black" stroke-width="5" points="374.4,-775.98 358.71,-836.89 295.2,-864 231.69,-836.89 216,-775.98 259.95,-727.13 330.45,-727.13 374.4,-775.98"/>
<text text-anchor="middle" x="295.2" y="-783.45" font-family="cyan" font-size="24.00">5</text>
</g>
<!-- No1&#45;&gt;No1b -->
<g id="edge4" class="edge">
<title>No1&#45;&gt;No1b</title>
<path fill="none" stroke="black" stroke-width="5" d="M284.34,-906.74C285.55,-894.04 286.83,-880.62 288.07,-867.62"/>
<polygon fill="black" stroke="black" stroke-width="5" points="290.34,-872.86 288.64,-867.68 285.99,-872.45 290.34,-872.86"/>
</g>
<!-- No1b&#45;&gt;No0 -->
<g id="edge5" class="edge">
<title>No1b&#45;&gt;No0</title>
<path fill="none" stroke="black" stroke-width="5" d="M295.2,-726.74C295.2,-714.93 295.2,-702.49 295.2,-690.34"/>
<polygon fill="black" stroke="black" stroke-width="5" points="297.39,-695.41 295.2,-690.41 293.01,-695.41 297.39,-695.41"/>
</g>
<!-- No2 -->
<g id="node7" class="node">
<title>No2</title>
<polygon fill="cornflowerblue" stroke="black" stroke-width="5" points="947.4,-235.98 931.71,-296.89 868.2,-324 804.69,-296.89 789,-235.98 832.95,-187.13 903.45,-187.13 947.4,-235.98"/>
<text text-anchor="middle" x="868.2" y="-243.45" font-family="cyan" font-size="24.00">raiz=3.0</text>
</g>
<!-- No2a -->
<g id="node8" class="node">
<title>No2a</title>
<polygon fill="cornflowerblue" stroke="black" stroke-width="5" points="839.4,-55.98 823.71,-116.89 760.2,-144 696.69,-116.89 681,-55.98 724.95,-7.13 795.45,-7.13 839.4,-55.98"/>
<text text-anchor="middle" x="760.2" y="-63.45" font-family="cyan" font-size="24.00">9</text>
</g>
<!-- No2&#45;&gt;No2a -->
<g id="edge6" class="edge">
<title>No2&#45;&gt;No2a</title>
<path fill="none" stroke="black" stroke-width="5" d="M830.73,-189.24C819.98,-171.53 808.27,-152.22 797.53,-134.52"/>
<polygon fill="black" stroke="black" stroke-width="5" points="801.99,-137.72 797.53,-134.58 798.25,-139.98 801.99,-137.72"/>
</g>
<!-- No2b -->
<g id="node9" class="node">
<title>No2b</title>
<polygon fill="cornflowerblue" stroke="black" stroke-width="5" points="1055.4,-55.98 1039.71,-116.89 976.2,-144 912.69,-116.89 897,-55.98 940.95,-7.13 1011.45,-7.13 1055.4,-55.98"/>
<text text-anchor="middle" x="976.2" y="-63.45" font-family="cyan" font-size="24.00">2</text>
</g>
<!-- No2&#45;&gt;No2b -->
<g id="edge7" class="edge">
<title>No2&#45;&gt;No2b</title>
<path fill="none" stroke="black" stroke-width="5" d="M905.67,-189.24C916.42,-171.53 928.13,-152.22 938.87,-134.52"/>
<polygon fill="black" stroke="black" stroke-width="5" points="938.15,-139.98 938.87,-134.58 934.41,-137.72 938.15,-139.98"/>
</g>
<!-- No3 -->
<g id="node10" class="node">
<title>No3</title>
<polygon fill="cornflowerblue" stroke="black" stroke-width="5" points="847.75,-595.98 827.44,-656.89 745.2,-684 662.96,-656.89 642.65,-595.98 699.56,-547.13 790.84,-547.13 847.75,-595.98"/>
<text text-anchor="middle" x="745.2" y="-603.45" font-family="cyan" font-size="24.00">potencia=8.0</text>
</g>
<!-- No3a -->
<g id="node11" class="node">
<title>No3a</title>
<polygon fill="cornflowerblue" stroke="black" stroke-width="5" points="731.4,-415.98 715.71,-476.89 652.2,-504 588.69,-476.89 573,-415.98 616.95,-367.13 687.45,-367.13 731.4,-415.98"/>
<text text-anchor="middle" x="652.2" y="-423.45" font-family="cyan" font-size="24.00">2</text>
</g>
<!-- No3&#45;&gt;No3a -->
<g id="edge8" class="edge">
<title>No3&#45;&gt;No3a</title>
<path fill="none" stroke="black" stroke-width="5" d="M711.62,-546.74C703.04,-530.31 693.82,-512.67 685.27,-496.29"/>
<polygon fill="black" stroke="black" stroke-width="5" points="688.89,-499.67 684.64,-496.25 685.01,-501.7 688.89,-499.67"/>
</g>
<!-- No3b -->
<g id="node12" class="node">
<title>No3b</title>
<polygon fill="cornflowerblue" stroke="black" stroke-width="5" points="947.4,-415.98 931.71,-476.89 868.2,-504 804.69,-476.89 789,-415.98 832.95,-367.13 903.45,-367.13 947.4,-415.98"/>
<text text-anchor="middle" x="868.2" y="-423.45" font-family="cyan" font-size="24.00">3.0</text>
</g>
<!-- No3&#45;&gt;No3b -->
<g id="edge9" class="edge">
<title>No3&#45;&gt;No3b</title>
<path fill="none" stroke="black" stroke-width="5" d="M789.61,-546.74C801.75,-529.17 814.85,-510.21 826.81,-492.89"/>
<polygon fill="black" stroke="black" stroke-width="5" points="826.11,-498.41 827.16,-493.06 822.51,-495.93 826.11,-498.41"/>
</g>
<!-- No3b&#45;&gt;No2 -->
<g id="edge13" class="edge">
<title>No3b&#45;&gt;No2</title>
<path fill="none" stroke="black" stroke-width="5" d="M868.2,-366.74C868.2,-354.93 868.2,-342.49 868.2,-330.34"/>
<polygon fill="black" stroke="black" stroke-width="5" points="870.39,-335.41 868.2,-330.41 866.01,-335.41 870.39,-335.41"/>
</g>
<!-- No4 -->
<g id="node13" class="node">
<title>No4</title>
<polygon fill="cornflowerblue" stroke="black" stroke-width="5" points="710.93,-955.98 681.67,-1016.89 563.2,-1044 444.73,-1016.89 415.47,-955.98 497.46,-907.13 628.94,-907.13 710.93,-955.98"/>
<text text-anchor="middle" x="563.2" y="-963.45" font-family="cyan" font-size="24.00">multiplicacion=32.0</text>
</g>
<!-- No4a -->
<g id="node14" class="node">
<title>No4a</title>
<polygon fill="cornflowerblue" stroke="black" stroke-width="5" points="608.4,-775.98 592.71,-836.89 529.2,-864 465.69,-836.89 450,-775.98 493.95,-727.13 564.45,-727.13 608.4,-775.98"/>
<text text-anchor="middle" x="529.2" y="-783.45" font-family="cyan" font-size="24.00">4</text>
</g>
<!-- No4&#45;&gt;No4a -->
<g id="edge10" class="edge">
<title>No4&#45;&gt;No4a</title>
<path fill="none" stroke="black" stroke-width="5" d="M550.93,-906.74C548.31,-893.02 545.52,-878.46 542.86,-864.49"/>
<polygon fill="black" stroke="black" stroke-width="5" points="545.89,-869.47 542.8,-864.96 541.59,-870.29 545.89,-869.47"/>
</g>
<!-- No4b -->
<g id="node15" class="node">
<title>No4b</title>
<polygon fill="cornflowerblue" stroke="black" stroke-width="5" points="824.4,-775.98 808.71,-836.89 745.2,-864 681.69,-836.89 666,-775.98 709.95,-727.13 780.45,-727.13 824.4,-775.98"/>
<text text-anchor="middle" x="745.2" y="-783.45" font-family="cyan" font-size="24.00">8.0</text>
</g>
<!-- No4&#45;&gt;No4b -->
<g id="edge11" class="edge">
<title>No4&#45;&gt;No4b</title>
<path fill="none" stroke="black" stroke-width="5" d="M628.91,-906.74C649.14,-886.95 671.19,-865.38 690.6,-846.4"/>
<polygon fill="black" stroke="black" stroke-width="5" points="688.4,-851.7 690.44,-846.64 685.34,-848.57 688.4,-851.7"/>
</g>
<!-- No4b&#45;&gt;No3 -->
<g id="edge12" class="edge">
<title>No4b&#45;&gt;No3</title>
<path fill="none" stroke="black" stroke-width="5" d="M745.2,-726.74C745.2,-714.93 745.2,-702.49 745.2,-690.34"/>
<polygon fill="black" stroke="black" stroke-width="5" points="747.39,-695.41 745.2,-690.41 743.01,-695.41 747.39,-695.41"/>
</g>
<!-- No5 -->
<g id="node16" class="node">
<title>No5</title>
<polygon fill="cornflowerblue" stroke="black" stroke-width="5" points="1375.72,-595.98 1335.21,-656.89 1171.2,-684 1007.19,-656.89 966.68,-595.98 1080.18,-547.13 1262.22,-547.13 1375.72,-595.98"/>
<text text-anchor="middle" x="1171.2" y="-603.45" font-family="cyan" font-size="24.00">seno=0.8939966636005579</text>
</g>
<!-- No5a -->
<g id="node17" class="node">
<title>No5a</title>
<polygon fill="cornflowerblue" stroke="black" stroke-width="5" points="1218.4,-415.98 1202.71,-476.89 1139.2,-504 1075.69,-476.89 1060,-415.98 1103.95,-367.13 1174.45,-367.13 1218.4,-415.98"/>
<text text-anchor="middle" x="1139.2" y="-423.45" font-family="cyan" font-size="24.00">90</text>
</g>
<!-- No5&#45;&gt;No5a -->
<g id="edge14" class="edge">
<title>No5&#45;&gt;No5a</title>
<path fill="none" stroke="black" stroke-width="5" d="M1159.65,-546.74C1157.22,-533.23 1154.64,-518.9 1152.17,-505.13"/>
<polygon fill="black" stroke="black" stroke-width="5" points="1155.15,-509.8 1152.11,-505.26 1150.84,-510.57 1155.15,-509.8"/>
</g>
<!-- No5b -->
<g id="node18" class="node">
<title>No5b</title>
<polygon fill="cornflowerblue" stroke="black" stroke-width="5" points="1434.4,-415.98 1418.71,-476.89 1355.2,-504 1291.69,-476.89 1276,-415.98 1319.95,-367.13 1390.45,-367.13 1434.4,-415.98"/>
<text text-anchor="middle" x="1355.2" y="-423.45" font-family="cyan" font-size="24.00">0</text>
</g>
<!-- No5&#45;&gt;No5b -->
<g id="edge15" class="edge">
<title>No5&#45;&gt;No5b</title>
<path fill="none" stroke="black" stroke-width="5" d="M1237.63,-546.74C1258.18,-526.85 1280.59,-505.18 1300.28,-486.13"/>
<polygon fill="black" stroke="black" stroke-width="5" points="1298.1,-491.41 1300.17,-486.36 1295.06,-488.27 1298.1,-491.41"/>
</g>
<!-- No6 -->
<g id="node19" class="node">
<title>No6</title>
<polygon fill="cornflowerblue" stroke="black" stroke-width="5" points="1519.85,-955.98 1480.11,-1016.89 1319.2,-1044 1158.29,-1016.89 1118.55,-955.98 1229.9,-907.13 1408.5,-907.13 1519.85,-955.98"/>
<text text-anchor="middle" x="1319.2" y="-963.45" font-family="cyan" font-size="24.00">suma=6.213996663600558</text>
</g>
<!-- No6a -->
<g id="node20" class="node">
<title>No6a</title>
<polygon fill="cornflowerblue" stroke="black" stroke-width="5" points="1330.97,-775.98 1299.33,-836.89 1171.2,-864 1043.07,-836.89 1011.43,-775.98 1100.09,-727.13 1242.31,-727.13 1330.97,-775.98"/>
<text text-anchor="middle" x="1171.2" y="-783.45" font-family="cyan" font-size="24.00">0.8939966636005579</text>
</g>
<!-- No6&#45;&gt;No6a -->
<g id="edge16" class="edge">
<title>No6&#45;&gt;No6a</title>
<path fill="none" stroke="black" stroke-width="5" d="M1265.77,-906.74C1252.6,-890.9 1238.49,-873.93 1225.29,-858.05"/>
<polygon fill="black" stroke="black" stroke-width="5" points="1229.47,-860.05 1224.59,-857.6 1226.1,-862.85 1229.47,-860.05"/>
</g>
<!-- No6b -->
<g id="node21" class="node">
<title>No6b</title>
<polygon fill="cornflowerblue" stroke="black" stroke-width="5" points="1547.4,-775.98 1531.71,-836.89 1468.2,-864 1404.69,-836.89 1389,-775.98 1432.95,-727.13 1503.45,-727.13 1547.4,-775.98"/>
<text text-anchor="middle" x="1468.2" y="-783.45" font-family="cyan" font-size="24.00">5.32</text>
</g>
<!-- No6&#45;&gt;No6b -->
<g id="edge17" class="edge">
<title>No6&#45;&gt;No6b</title>
<path fill="none" stroke="black" stroke-width="5" d="M1372.99,-906.74C1388.52,-888.19 1405.34,-868.09 1420.47,-850.02"/>
<polygon fill="black" stroke="black" stroke-width="5" points="1418.74,-854.71 1420.28,-849.47 1415.39,-851.9 1418.74,-854.71"/>
</g>
<!-- No6a&#45;&gt;No5 -->
<g id="edge18" class="edge">
<title>No6a&#45;&gt;No5</title>
<path fill="none" stroke="black" stroke-width="5" d="M1171.2,-726.74C1171.2,-714.93 1171.2,-702.49 1171.2,-690.34"/>
<polygon fill="black" stroke="black" stroke-width="5" points="1173.39,-695.41 1171.2,-690.41 1169.01,-695.41 1173.39,-695.41"/>
</g>
</g>
</svg>
